FFmpeg version SVN-r25716, Copyright (c) 2000-2010 the FFmpeg developers  built on Nov 10 2010 12:23:18 with gcc 4.1.2 20080704 (Red Hat 4.1.2-48)  configuration: --enable-libmp3lame --enable-shared --disable-mmx --arch=x86_64  libavutil     50.33. 0 / 50.33. 0  libavcore      0.12. 1 /  0.12. 1  libavcodec    52.94. 4 / 52.94. 4  libavformat   52.84. 0 / 52.84. 0  libavdevice   52. 2. 2 / 52. 2. 2  libavfilter    1.59. 0 /  1.59. 0  libswscale     0.12. 0 /  0.12. 0Seems stream 0 codec frame rate differs from container frame rate: 1000.00 (1000/1) -> 12.00 (12/1)Input #0, mov,mp4,m4a,3gp,3g2,mj2, from '/RAID10/data/converted_video_files/9060.mov':  Metadata:    major_brand     : qt      minor_version   : 537199360    compatible_brands: qt    Duration: 00:00:12.75, start: 0.000000, bitrate: 8525 kb/s    Stream #0.0(eng): Video: mpeg4, yuv420p, 500x500 [PAR 1:1 DAR 1:1], 8524 kb/s, 12 fps, 12 tbr, 600 tbn, 1k tbc[buffer @ 0x2ec7ca0] w:500 h:500 pixfmt:yuv420pOutput #0, flv, to '/RAID10/data/converted_video_files/9060.flv':  Metadata:    encoder         : Lavf52.84.0    Stream #0.0(eng): Video: flv, yuv420p, 500x500 [PAR 1:1 DAR 1:1], q=2-31, 600 kb/s, 1k tbn, 24 tbcStream mapping:  Stream #0.0 -> #0.0Press [q] to stop encodingframe=   29 fps=  0 q=31.0 size=     536kB time=2.37 bitrate=1849.5kbits/s    frame=   64 fps= 62 q=31.0 size=     721kB time=5.29 bitrate=1116.3kbits/s    frame=   99 fps= 64 q=31.0 size=     909kB time=8.21 bitrate= 907.6kbits/s    frame=  135 fps= 66 q=31.0 size=    1088kB time=11.21 bitrate= 795.1kbits/s    frame=  153 fps= 66 q=31.0 Lsize=    1196kB time=12.71 bitrate= 770.8kbits/s    video:1193kB audio:0kB global headers:0kB muxing overhead 0.217544%